# xmcd
#
# Track frame offsets:
#	150
#	20586
#	45217
#	59537
#	83639
#	97368
#	120916
#	133034
#
# Disc length: 2302 seconds
#
# Revision: 1
# Processed by: cddbd v1.5.1PL0 Copyright (c) Steve Scherf et al.
# Submitted via: audiograbber 1.81.03
#
DISCID=6208fc08
DTITLE=Albert Collins - Ice Pickin'
DYEAR=1900
DGENRE=Blues
TTITLE0=Honey, hush' (Talking woman blues)
TTITLE1=When the welfare turns its back on you
TTITLE2=Ice pick
TTITLE3=Cold, cold feeling
TTITLE4=Too tired
TTITLE5=Master charge
TTITLE6=Avalanche
TTITLE7=Conversation with Collins
EXTD=
EXTT0=
EXTT1=
EXTT2=
EXTT3=
EXTT4=
EXTT5=
EXTT6=
EXTT7=
PLAYORDER=
